<svg id="_7" data-name="7" xmlns="http://www.w3.org/2000/svg" viewBox="0 0 39.7 56.7">
  <title>Rooshe-mini</title>
  <g id="Finish_Logo" data-name="Finish Logo">
    <path d="M171.9,446.3a15,15,0,0,1,.2-2,13.6,13.6,0,0,1,.7-2.5,14.5,14.5,0,0,1,1.1-2.2,6,6,0,0,1,.8-1.3,16.6,16.6,0,0,1,1.7-2,12,12,0,0,1,2.1-1.7,22.4,22.4,0,0,0-4,.9l-1.1.5a23,23,0,0,0-5.2,3.3,26.8,26.8,0,0,0-4.8,5.3,20,20,0,0,0-1.6,2.8,34.3,34.3,0,0,0-1.2,3.3,21.7,21.7,0,0,0-1,5.8v28.8a6.1,6.1,0,0,0,6.1,6,6,6,0,0,0,6.1-6v-29s-.1-5.6-.1-8.7A6.2,6.2,0,0,0,171.9,446.3Z" transform="translate(-159.6 -434.6)" style="fill: #2fc0cd"/>
    <circle cx="27.2" cy="12.5" r="12.5" style="fill: #f47d6a"/>
  </g>
</svg>
