<svg id="_7" data-name="7" xmlns="http://www.w3.org/2000/svg" viewBox="0 0 356.6 84.7">
  <title>Logo-Rooshe</title>
  <g id="Finish_Logo" data-name="Finish Logo">
    <g>
      <path d="M236.5,488.8a25.5,25.5,0,0,1-10-2,29.3,29.3,0,0,1-8.3-5.5,26.9,26.9,0,0,1-5.5-8.2,25.1,25.1,0,0,1,0-20.1,25.9,25.9,0,0,1,13.8-13.8,23.8,23.8,0,0,1,10-2,24.2,24.2,0,0,1,10,2,24.8,24.8,0,0,1,8.3,5.6,26,26,0,0,1,5.6,8.2,26.3,26.3,0,0,1,0,20.1,27.2,27.2,0,0,1-5.6,8.2,27.9,27.9,0,0,1-8.3,5.5A25.9,25.9,0,0,1,236.5,488.8Zm0-44.9a18.5,18.5,0,0,0-7.4,1.5,19.8,19.8,0,0,0-6.1,4.1,21.1,21.1,0,0,0-4.1,6.1,18.8,18.8,0,0,0-1.5,7.4,19.3,19.3,0,0,0,1.5,7.5,21.1,21.1,0,0,0,4.1,6.1,19.6,19.6,0,0,0,6.1,4,19.4,19.4,0,0,0,20.9-4,19.1,19.1,0,0,0,5.6-13.6,18.8,18.8,0,0,0-1.5-7.4,19.3,19.3,0,0,0-4.1-6.1,18.7,18.7,0,0,0-6.1-4.1A18.5,18.5,0,0,0,236.5,443.9Z" transform="translate(-159.6 -406.6)" style="fill: #2fc0cd;stroke: #2fc0cd;stroke-miterlimit: 10;stroke-width: 5px"/>
      <path d="M301,488.8a25.5,25.5,0,0,1-10-2,29.3,29.3,0,0,1-8.3-5.5,26.9,26.9,0,0,1-5.5-8.2,26.3,26.3,0,0,1,0-20.1A25.9,25.9,0,0,1,291,439.2a26,26,0,0,1,20,0,24.8,24.8,0,0,1,8.3,5.6,24.4,24.4,0,0,1,5.6,8.2,26.3,26.3,0,0,1,0,20.1,25.5,25.5,0,0,1-5.6,8.2,27.9,27.9,0,0,1-8.3,5.5A25.5,25.5,0,0,1,301,488.8Zm0-44.9a18.8,18.8,0,0,0-7.4,1.5,19.8,19.8,0,0,0-6.1,4.1,21.1,21.1,0,0,0-4.1,6.1,18.8,18.8,0,0,0-1.5,7.4,19.3,19.3,0,0,0,1.5,7.5,21.1,21.1,0,0,0,4.1,6.1,19.6,19.6,0,0,0,6.1,4,18.8,18.8,0,0,0,7.4,1.5,19.3,19.3,0,0,0,7.5-1.5,18.7,18.7,0,0,0,10.1-10.1,19.3,19.3,0,0,0,1.5-7.5,18.8,18.8,0,0,0-1.5-7.4A18.9,18.9,0,0,0,301,443.9Z" transform="translate(-159.6 -406.6)" style="fill: #2fc0cd;stroke: #2fc0cd;stroke-miterlimit: 10;stroke-width: 5px"/>
      <path d="M349.4,446.2a7.5,7.5,0,0,0-2.3,5.6,7.3,7.3,0,0,0,2.3,5.5,7.9,7.9,0,0,0,5.6,2.3h14.6a15.1,15.1,0,0,1,5.6,1.1,17,17,0,0,1,4.7,3.2,13.8,13.8,0,0,1,3.1,4.7,13.1,13.1,0,0,1,1.2,5.6,13.9,13.9,0,0,1-1.2,5.7,13.3,13.3,0,0,1-3.1,4.6,14.8,14.8,0,0,1-4.7,3.1,13.4,13.4,0,0,1-5.6,1.2H343.8a3.3,3.3,0,0,1-2.5-1,3.2,3.2,0,0,1-.9-2.3,3.4,3.4,0,0,1,.9-2.4,3.7,3.7,0,0,1,2.5-1h25.8a7.3,7.3,0,0,0,5.5-2.3,7.7,7.7,0,0,0,2.3-5.6,7.5,7.5,0,0,0-2.3-5.5,7.3,7.3,0,0,0-5.5-2.3H355a15.3,15.3,0,0,1-10.4-4.3,14.9,14.9,0,0,1-3.1-4.6,15.3,15.3,0,0,1,0-11.4,16.2,16.2,0,0,1,3.1-4.6,14,14,0,0,1,4.7-3.2,13.8,13.8,0,0,1,5.7-1.1h25.7a3.7,3.7,0,0,1,2.5.9,3.3,3.3,0,0,1,1,2.4,3.3,3.3,0,0,1-1,2.5,3.7,3.7,0,0,1-2.5.9H355A7.9,7.9,0,0,0,349.4,446.2Z" transform="translate(-159.6 -406.6)" style="fill: #2fc0cd;stroke: #2fc0cd;stroke-miterlimit: 10;stroke-width: 5px"/>
      <path d="M402.5,488.8a3.1,3.1,0,0,1-2.4-1,3.3,3.3,0,0,1-1-2.3V412.4a3.3,3.3,0,0,1,1-2.3,3.1,3.1,0,0,1,2.4-1,3.3,3.3,0,0,1,2.4,1,2.9,2.9,0,0,1,1,2.3v33.2a23,23,0,0,1,6.9-5.4,25.6,25.6,0,0,1,12.2-3,24.2,24.2,0,0,1,10,2,23.5,23.5,0,0,1,8.2,5.6,26,26,0,0,1,5.6,8.2,26.2,26.2,0,0,1,2,10v22.5a3.4,3.4,0,0,1-5.8,2.3,2.9,2.9,0,0,1-1-2.3V463a18.8,18.8,0,0,0-1.5-7.4,21.1,21.1,0,0,0-4.1-6.1,19.4,19.4,0,0,0-6-4.1,19.3,19.3,0,0,0-14.9,0,19.4,19.4,0,0,0-6,4.1,21.1,21.1,0,0,0-4.1,6.1,18.8,18.8,0,0,0-1.5,7.4v22.5a2.9,2.9,0,0,1-1,2.3A3.3,3.3,0,0,1,402.5,488.8Z" transform="translate(-159.6 -406.6)" style="fill: #2fc0cd;stroke: #2fc0cd;stroke-miterlimit: 10;stroke-width: 5px"/>
      <path d="M513.7,452.4a3,3,0,0,1-1.1,2.8l-1,.5-38.8,14.7a16.3,16.3,0,0,0,3,4.8,18,18,0,0,0,3.7,3.2,13.5,13.5,0,0,0,3.5,1.9,9.2,9.2,0,0,0,2.4.9,18,18,0,0,0,5.4.8l3.5-.3a19.6,19.6,0,0,0,4.3-1.4,18,18,0,0,0,4.4-2.8,23.1,23.1,0,0,0,4-5,3.1,3.1,0,0,1,3-1.8,2.5,2.5,0,0,1,1.6.5,3.2,3.2,0,0,1,1.6,2,3.9,3.9,0,0,1-.3,2.6,26.8,26.8,0,0,1-9.5,9.7,24.6,24.6,0,0,1-12.5,3.3,26.4,26.4,0,0,1-7.4-1,26.2,26.2,0,0,1-13.2-41.3,26.3,26.3,0,0,1,14.3-8.8l3.1-.5a17.3,17.3,0,0,1,3.2-.3,25.3,25.3,0,0,1,13.2,3.7c3.9,2.5,7.6,5.6,9.3,10.2A6.1,6.1,0,0,1,513.7,452.4Zm-8.4-1.6a16,16,0,0,0-3.8-3.6,15.4,15.4,0,0,0-3.9-2.2,13.9,13.9,0,0,0-3.8-.9l-3.1-.3h-2.3l-2.2.4a21.1,21.1,0,0,0-5.1,1.9,18.7,18.7,0,0,0-4.7,3.7,17.9,17.9,0,0,0-3.4,5.3,16.7,16.7,0,0,0-1.5,7.3v1.2Z" transform="translate(-159.6 -406.6)" style="fill: #2fc0cd;stroke: #2fc0cd;stroke-miterlimit: 10;stroke-width: 5px"/>
    </g>
    <path d="M171.9,446.3a15,15,0,0,1,.2-2,13.6,13.6,0,0,1,.7-2.5,14.5,14.5,0,0,1,1.1-2.2,6,6,0,0,1,.8-1.3,16.6,16.6,0,0,1,1.7-2,12,12,0,0,1,2.1-1.7,22.4,22.4,0,0,0-4,.9l-1.1.5a23,23,0,0,0-5.2,3.3,26.8,26.8,0,0,0-4.8,5.3,20,20,0,0,0-1.6,2.8,34.3,34.3,0,0,0-1.2,3.3,21.7,21.7,0,0,0-1,5.8v28.8a6.1,6.1,0,0,0,6.1,6,6,6,0,0,0,6.1-6v-29s-.1-5.6-.1-8.7A6.2,6.2,0,0,0,171.9,446.3Z" transform="translate(-159.6 -406.6)" style="fill: #2fc0cd"/>
    <circle cx="27.2" cy="40.5" r="12.5" style="fill: #f47d6a"/>
  </g>
</svg>
